# xmcd
#
# Track frame offsets: 
#        150
#        20750
#        39099
#        59992
#        69828
#        89926
#        104552
#        122411
#        132553
#        150535
#        165847
#        189217
#        206007
#        227577
#        246392
#        275599
#        286301
#        301635
#
# Disc length: 4273 seconds
#
# Revision: 0
# Processed by: cddbd v1.5.1PL0 Copyright (c) Steve Scherf et al.
# Submitted via: ExactAudioCopy v0.95b2
#
DISCID=fc10af12
DTITLE=Moby - 18
DYEAR=1900
DGENRE=A Cappella
TTITLE0=We Are All Made of Stars
TTITLE1=In This World
TTITLE2=In My Heart
TTITLE3=Great Escape (Featuring Azure Ray)
TTITLE4=Signs of Love
TTITLE5=One of These Mornings
TTITLE6=Another Woman
TTITLE7=Fireworks
TTITLE8=Extreme Ways
TTITLE9=Jam For The Ladies (Featuring Angie Stone and MC Lyte)
TTITLE10=Sunday (The Day Before My Birthday)
TTITLE11=18
TTITLE12=Sleep Alone
TTITLE13=At Least We Tried
TTITLE14=Harbour (Featuring Sinéad O'Connor)
TTITLE15=Look Back In
TTITLE16=The Rafters
TTITLE17=I'm Not Worried at All
EXTD=
EXTT0=
EXTT1=
EXTT2=
EXTT3=
EXTT4=
EXTT5=
EXTT6=
EXTT7=
EXTT8=
EXTT9=
EXTT10=
EXTT11=
EXTT12=
EXTT13=
EXTT14=
EXTT15=
EXTT16=
EXTT17=
PLAYORDER=
